<svg width="153" height="20" viewBox="0 0 153 20" fill="none" xmlns="http://www.w3.org/2000/svg">
<path d="M41.675 12.0612V10.6538H47.6715C48.0142 10.6538 48.1855 10.4621 48.1855 10.0787C48.1855 9.70338 48.0142 9.51573 47.6715 9.51573H43.7921C43.066 9.51573 42.5153 9.35256 42.14 9.02622C41.7647 8.69173 41.5771 8.21445 41.5771 7.59441C41.5771 6.9662 41.7647 6.48485 42.14 6.15035C42.5235 5.80769 43.0742 5.63636 43.7921 5.63636H49.3725V7.04371H43.8778C43.527 7.04371 43.3516 7.21503 43.3516 7.55769C43.3516 7.72902 43.4005 7.86364 43.4984 7.96154C43.5963 8.05944 43.7228 8.10839 43.8778 8.10839H47.9897C48.626 8.10839 49.1115 8.27564 49.446 8.61014C49.7886 8.93648 49.96 9.41375 49.96 10.042C49.96 10.6783 49.7886 11.176 49.446 11.535C49.1033 11.8858 48.6179 12.0612 47.9897 12.0612H41.675ZM51.0016 14.7535V5.69755H55.5296C56.6228 5.69755 57.4754 5.96678 58.0873 6.50524C58.6992 7.04371 59.0051 7.82284 59.0051 8.84266C59.0051 9.87063 58.6992 10.6538 58.0873 11.1923C57.4754 11.7308 56.6228 12 55.5296 12H52.7761V14.7535H51.0016ZM55.5296 7.1049H52.7761V10.5927H55.5296C56.0599 10.5927 56.4637 10.4499 56.7411 10.1643C57.0267 9.87063 57.1694 9.43007 57.1694 8.84266C57.1694 8.2634 57.0267 7.831 56.7411 7.54545C56.4637 7.25175 56.0599 7.1049 55.5296 7.1049ZM61.7848 12C61.124 12 60.6181 11.8328 60.2673 11.4983C59.9165 11.1638 59.7411 10.6865 59.7411 10.0664C59.7411 9.45455 59.9165 8.98135 60.2673 8.64685C60.6181 8.31235 61.124 8.1451 61.7848 8.1451H66.4841V7.8514C66.4841 7.35373 66.2393 7.1049 65.7498 7.1049H60.561V5.69755H66.2149C66.9573 5.69755 67.4835 5.86888 67.7935 6.21154C68.1036 6.54604 68.2586 7.01923 68.2586 7.63112V12H61.7848ZM62.103 10.5927H66.4841V9.55245H62.103C61.948 9.55245 61.8256 9.6014 61.7358 9.6993C61.6543 9.78904 61.6135 9.91142 61.6135 10.0664C61.6135 10.2214 61.6543 10.3479 61.7358 10.4458C61.8256 10.5437 61.948 10.5927 62.103 10.5927ZM72.84 12.0612C71.7467 12.0612 70.8942 11.792 70.2823 11.2535C69.6704 10.7069 69.3645 9.90734 69.3645 8.8549C69.3645 7.79429 69.6704 6.99476 70.2823 6.45629C70.8942 5.90967 71.7467 5.63636 72.84 5.63636H76.9396V7.04371H72.84C72.3097 7.04371 71.9018 7.19056 71.6162 7.48427C71.3388 7.77797 71.2001 8.23485 71.2001 8.8549C71.2001 9.46678 71.3388 9.91958 71.6162 10.2133C71.9018 10.507 72.3097 10.6538 72.84 10.6538H77.062V12.0612H72.84ZM81.2056 12.0612C80.1124 12.0612 79.2598 11.792 78.6479 11.2535C78.0361 10.7069 77.7301 9.90734 77.7301 8.8549C77.7301 7.79429 78.0361 6.99476 78.6479 6.45629C79.2598 5.90967 80.1124 5.63636 81.2056 5.63636H84.2651C84.983 5.63636 85.5297 5.80769 85.9049 6.15035C86.2884 6.48485 86.4801 6.9662 86.4801 7.59441C86.4801 8.87529 85.7418 9.51573 84.2651 9.51573H79.6392C79.8105 10.2745 80.3327 10.6538 81.2056 10.6538H86.1619V12.0612H81.2056ZM81.2056 7.04371C80.3653 7.04371 79.8473 7.3986 79.6514 8.10839H84.1794C84.3426 8.10839 84.469 8.05944 84.5588 7.96154C84.6567 7.86364 84.7056 7.72902 84.7056 7.55769C84.7056 7.21503 84.5302 7.04371 84.1794 7.04371H81.2056Z" fill="#FDFDFD"/>
<path d="M0 10.1259V0H24.6154V10.1259H20V3.63636H15V20H10V3.63636H5V10.1259H0Z" fill="#FDFDFD"/>
<path d="M23.3599 20L32.3669 0H95.9301L104.937 20H100.07L98.1678 15.7762H30.1292L28.2271 20H23.3599ZM31.7515 12.1399H96.5454L92.6573 3.4965H35.6396L31.7515 12.1399Z" fill="#FDFDFD"/>
<path d="M107.179 20V0H111.654V16.3636H126.283V20H107.179Z" fill="#FDFDFD"/>
<path d="M129.086 20V0.0559433H133.562V8.1958H140.219L146.793 0.0559433H152.359L144.135 10.014L152.359 20H146.793L140.191 11.8322H133.562V20H129.086Z" fill="#FDFDFD"/>
</svg>
