<svg width="24" height="24" viewBox="0 0 24 24" fill="none" xmlns="http://www.w3.org/2000/svg">
<path d="M9 11H3V5" stroke="#665CB1" stroke-width="1.5" stroke-linecap="round" stroke-linejoin="round"/>
<path d="M3 10.88C3 10.88 3.06 10.75 3.18 10.54C3.3 10.33 3.48 10.01 3.72 9.64C3.96 9.27 4.24 8.84 4.58 8.38C4.92 7.92 5.31 7.38 5.75 6.94C6.20286 6.42712 6.68712 5.94286 7.2 5.49C7.7334 5.02247 8.30544 4.60096 8.91 4.23C9.51685 3.85328 10.1686 3.55427 10.85 3.34C11.5446 3.11525 12.27 3.00053 13 3C13.4744 3.00211 13.9472 3.05576 14.41 3.16C14.8635 3.26042 15.3033 3.41486 15.72 3.62C16.1401 3.819 16.5388 4.06025 16.91 4.34C17.2747 4.64037 17.6096 4.97526 17.91 5.34C18.2321 5.69673 18.5169 6.08541 18.76 6.5C19.0184 6.9252 19.236 7.37386 19.41 7.84" stroke="#665CB1" stroke-width="1.5" stroke-linecap="round" stroke-linejoin="round"/>
<path d="M15 13H21V19" stroke="#665CB1" stroke-width="1.5" stroke-linecap="round" stroke-linejoin="round"/>
<path d="M21.0001 13.12C21.0001 13.12 20.9401 13.25 20.8201 13.46C20.7001 13.67 20.5201 13.99 20.2801 14.36C20.0401 14.73 19.7601 15.16 19.4201 15.62C19.0801 16.08 18.6901 16.62 18.2501 17.06C17.7972 17.5729 17.313 18.0571 16.8001 18.51C16.2667 18.9775 15.6946 19.399 15.0901 19.77C14.4832 20.1467 13.8315 20.4457 13.1501 20.66C12.4555 20.8847 11.7301 20.9995 11.0001 21C10.5257 20.9979 10.0529 20.9442 9.59009 20.84C9.1366 20.7396 8.6968 20.5851 8.28009 20.38C7.86002 20.181 7.4613 19.9397 7.09009 19.66C6.72534 19.3596 6.39046 19.0247 6.09009 18.66C5.76801 18.3033 5.4832 17.9146 5.24009 17.5C4.98171 17.0748 4.76407 16.6261 4.59009 16.16" stroke="#665CB1" stroke-width="1.5" stroke-linecap="round" stroke-linejoin="round"/>
</svg>
