<svg width="32" height="32" viewBox="0 0 32 32" fill="none" xmlns="http://www.w3.org/2000/svg">
<path d="M13.3333 13.3334C16.2789 13.3334 18.6667 10.9455 18.6667 8.00002C18.6667 5.0545 16.2789 2.66669 13.3333 2.66669C10.3878 2.66669 8 5.0545 8 8.00002C8 10.9455 10.3878 13.3334 13.3333 13.3334Z" stroke="#E1E1E1" stroke-width="1.5" stroke-linecap="round" stroke-linejoin="round"/>
<path d="M20.8934 29.3333C21.3074 29.3333 21.7157 29.2369 22.0859 29.0518C22.4562 28.8667 22.7783 28.5979 23.0267 28.2667C23.2751 27.9355 23.443 27.551 23.517 27.1437C23.5911 26.7364 23.5693 26.3174 23.4534 25.92C22.7748 23.781 21.4227 21.9189 19.5987 20.6116C17.7748 19.3043 15.577 18.622 13.3334 18.6667C11.0898 18.622 8.89193 19.3043 7.068 20.6116C5.24406 21.9189 3.89189 23.781 3.21337 25.92C3.09713 26.3185 3.07553 26.7387 3.1503 27.147C3.22506 27.5553 3.39412 27.9405 3.64402 28.272C3.89392 28.6035 4.21775 28.872 4.58974 29.0563C4.96172 29.2405 5.37159 29.3354 5.7867 29.3333H20.8934Z" stroke="#E1E1E1" stroke-width="1.5" stroke-linecap="round" stroke-linejoin="round"/>
<path d="M22.4399 4.22668C22.9245 4.71458 23.3135 5.28893 23.5866 5.92002C24.1377 7.25192 24.1377 8.74811 23.5866 10.08C23.3135 10.7111 22.9245 11.2855 22.4399 11.7734" stroke="#E1E1E1" stroke-width="1.5" stroke-linecap="round" stroke-linejoin="round"/>
<path d="M29.0667 26.48C28.3968 23.1573 26.6086 20.1644 24 18" stroke="#E1E1E1" stroke-width="1.5" stroke-linecap="round" stroke-linejoin="round"/>
</svg>
