<svg width="32" height="32" viewBox="0 0 32 32" fill="none" xmlns="http://www.w3.org/2000/svg">
<path d="M29.3334 5.33335V18.6667C29.3334 19.3739 29.0525 20.0522 28.5524 20.5523C28.0523 21.0524 27.374 21.3334 26.6667 21.3334H18.6667L10.6667 28V21.3334H5.33341C4.62617 21.3334 3.94789 21.0524 3.4478 20.5523C2.9477 20.0522 2.66675 19.3739 2.66675 18.6667V5.33335C2.66675 4.62611 2.9477 3.94783 3.4478 3.44774C3.94789 2.94764 4.62617 2.66669 5.33341 2.66669H26.6667C27.374 2.66669 28.0523 2.94764 28.5524 3.44774C29.0525 3.94783 29.3334 4.62611 29.3334 5.33335Z" stroke="#E1E1E1" stroke-width="1.5" stroke-linecap="round" stroke-linejoin="round"/>
</svg>
