<svg width="32" height="32" viewBox="0 0 32 32" fill="none" xmlns="http://www.w3.org/2000/svg">
<path d="M16.0001 13.3334C18.9456 13.3334 21.3334 10.9455 21.3334 8.00002C21.3334 5.0545 18.9456 2.66669 16.0001 2.66669C13.0546 2.66669 10.6667 5.0545 10.6667 8.00002C10.6667 10.9455 13.0546 13.3334 16.0001 13.3334Z" stroke="#E1E1E1" stroke-width="1.5" stroke-linecap="round" stroke-linejoin="round"/>
<path d="M23.5601 29.3333C23.9741 29.3333 24.3824 29.2369 24.7527 29.0518C25.123 28.8667 25.4451 28.5979 25.6934 28.2667C25.9418 27.9355 26.1097 27.551 26.1838 27.1437C26.2578 26.7364 26.236 26.3174 26.1201 25.92C25.4416 23.781 24.0894 21.9189 22.2655 20.6116C20.4416 19.3043 18.2437 18.622 16.0001 18.6667C13.7565 18.622 11.5587 19.3043 9.73474 20.6116C7.91081 21.9189 6.55863 23.781 5.88011 25.92C5.76388 26.3185 5.74228 26.7387 5.81705 27.147C5.89181 27.5553 6.06087 27.9405 6.31077 28.272C6.56067 28.6035 6.8845 28.872 7.25649 29.0563C7.62847 29.2405 8.03834 29.3354 8.45345 29.3333H23.5601Z" stroke="#E1E1E1" stroke-width="1.5" stroke-linecap="round" stroke-linejoin="round"/>
</svg>
