<svg width="32" height="32" viewBox="0 0 32 32" fill="none" xmlns="http://www.w3.org/2000/svg">
<path d="M16 20C18.2091 20 20 18.2091 20 16C20 13.7909 18.2091 12 16 12C13.7909 12 12 13.7909 12 16C12 18.2091 13.7909 20 16 20Z" stroke="#E1E1E1" stroke-width="1.5" stroke-linecap="round" stroke-linejoin="round"/>
<path d="M26.3201 18.6667H28.0001C28.3537 18.6667 28.6928 18.5262 28.9429 18.2762C29.1929 18.0261 29.3334 17.687 29.3334 17.3334V14.6667C29.3334 14.3131 29.1929 13.9739 28.9429 13.7239C28.6928 13.4738 28.3537 13.3334 28.0001 13.3334H26.3201V13.1467C26.0666 12.2501 25.6992 11.3898 25.2267 10.5867L26.4134 9.40002C26.6617 9.1502 26.8011 8.81227 26.8011 8.46002C26.8011 8.10777 26.6617 7.76984 26.4134 7.52002L24.4801 5.62669C24.2303 5.37835 23.8923 5.23896 23.5401 5.23896C23.1878 5.23896 22.8499 5.37835 22.6001 5.62669L21.4134 6.81335C20.5559 6.30464 19.6314 5.91867 18.6667 5.66669V4.00002C18.6667 3.6464 18.5263 3.30726 18.2762 3.05721C18.0262 2.80716 17.687 2.66669 17.3334 2.66669H14.6667C14.3131 2.66669 13.974 2.80716 13.7239 3.05721C13.4739 3.30726 13.3334 3.6464 13.3334 4.00002V5.66669C12.3688 5.91867 11.4442 6.30464 10.5867 6.81335L9.40008 5.62669C9.15027 5.37835 8.81233 5.23896 8.46008 5.23896C8.10783 5.23896 7.7699 5.37835 7.52008 5.62669L5.62675 7.52002C5.37841 7.76984 5.23902 8.10777 5.23902 8.46002C5.23902 8.81227 5.37841 9.1502 5.62675 9.40002L6.81342 10.5867C6.34099 11.3898 5.97355 12.2501 5.72008 13.1467V13.3334H4.00008C3.64646 13.3334 3.30732 13.4738 3.05727 13.7239C2.80722 13.9739 2.66675 14.3131 2.66675 14.6667V17.3334C2.66675 17.687 2.80722 18.0261 3.05727 18.2762C3.30732 18.5262 3.64646 18.6667 4.00008 18.6667H5.68008V18.8534C5.93355 19.7499 6.30099 20.6103 6.77341 21.4134L5.62675 22.6667C5.37841 22.9165 5.23902 23.2544 5.23902 23.6067C5.23902 23.9589 5.37841 24.2969 5.62675 24.5467L7.52008 26.44C7.7699 26.6884 8.10783 26.8277 8.46008 26.8277C8.81233 26.8277 9.15027 26.6884 9.40008 26.44L10.5867 25.2534C11.4442 25.7621 12.3688 26.148 13.3334 26.4V28C13.3334 28.3536 13.4739 28.6928 13.7239 28.9428C13.974 29.1929 14.3131 29.3334 14.6667 29.3334H17.3334C17.687 29.3334 18.0262 29.1929 18.2762 28.9428C18.5263 28.6928 18.6667 28.3536 18.6667 28V26.3334C19.6314 26.0814 20.5559 25.6954 21.4134 25.1867L22.6001 26.3734C22.8499 26.6217 23.1878 26.7611 23.5401 26.7611C23.8923 26.7611 24.2303 26.6217 24.4801 26.3734L26.3734 24.48C26.6218 24.2302 26.7611 23.8923 26.7611 23.54C26.7611 23.1878 26.6218 22.8498 26.3734 22.6L25.1867 21.4134C25.6592 20.6103 26.0266 19.7499 26.2801 18.8534L26.3201 18.6667Z" stroke="#E1E1E1" stroke-width="1.5" stroke-linecap="round" stroke-linejoin="round"/>
</svg>
